<?xml version="1.0" encoding="utf-8"?>
<!-- Generator: Adobe Illustrator 25.0.0, SVG Export Plug-In . SVG Version: 6.00 Build 0)  -->
<svg version="1.1" id="Layer_1" xmlns="http://www.w3.org/2000/svg" xmlns:xlink="http://www.w3.org/1999/xlink" x="0px" y="0px"
	 viewBox="0 0 150 68" style="enable-background:new 0 0 150 68;" xml:space="preserve">
<g>
	<polygon points="93.4,37.07 93.38,37.07 93.38,37.1 	"/>
	<path d="M141.75,22.68c-0.11-0.13-0.24-0.23-0.4-0.3c-0.16-0.07-0.33-0.11-0.51-0.11c-0.3,0-0.58,0.1-0.84,0.29
		c-0.02,0.02-0.05,0.05-0.09,0.07c-0.13,0.12-0.35,0.3-0.64,0.54c-0.3,0.24-0.72,0.57-1.25,0.98c-0.3,0.24-0.66,0.51-1.1,0.82
		s-0.96,0.66-1.56,1.05c-0.57,0.38-1.22,0.78-1.94,1.19c-0.72,0.41-1.53,0.84-2.42,1.28h0.02c-0.89,0.42-1.68,0.75-2.36,0.99
		c-0.68,0.24-1.28,0.44-1.81,0.6h0.02c-0.45,0.13-0.87,0.24-1.26,0.31c-0.39,0.08-0.77,0.15-1.14,0.21
		c-0.35,0.06-0.66,0.1-0.95,0.13c-0.29,0.03-0.6,0.06-0.95,0.08h-0.2c-0.33,0.02-0.7,0.05-1.1,0.08c-0.4,0.03-0.86,0.04-1.39,0.03
		c-1.82-0.04-3.4-0.27-4.72-0.7c-0.31-0.1-0.61-0.21-0.89-0.35c-0.29-0.14-0.55-0.29-0.8-0.46c-0.48-0.3-0.79-0.63-0.95-0.98
		c-0.14-0.27-0.25-0.54-0.31-0.79c-0.06-0.23-0.09-0.45-0.09-0.66c0.41-0.26,0.79-0.5,1.11-0.7c0.55-0.35,1.01-0.63,1.37-0.84
		c0.31-0.19,0.57-0.34,0.78-0.45c0.21-0.11,0.37-0.19,0.49-0.25c0.01-0.01,0.03-0.02,0.04-0.03c0.02-0.01,0.04-0.02,0.06-0.03
		l0.07-0.04c0.07-0.05,0.13-0.09,0.17-0.12c0.04-0.03,0.09-0.06,0.13-0.08c0.18-0.12,0.33-0.25,0.47-0.4
		c0.13-0.15,0.23-0.31,0.31-0.47c0.08-0.17,0.12-0.33,0.13-0.49c0.01-0.16-0.01-0.31-0.07-0.46c-0.15-0.21-0.32-0.35-0.52-0.44
		c-0.02-0.01-0.03-0.03-0.05-0.05c-0.3-0.19-0.63-0.24-1-0.16l-0.04,0.02c-0.14,0.04-0.27,0.07-0.39,0.11
		c-0.12,0.04-0.25,0.08-0.38,0.13c-0.14,0.05-0.3,0.11-0.47,0.18c-0.18,0.07-0.41,0.17-0.68,0.29l0.02-0.02
		c-0.25,0.13-0.57,0.3-0.95,0.52c-0.38,0.21-0.78,0.51-1.2,0.89c-0.24,0.23-0.47,0.51-0.7,0.84c-0.15,0.23-0.27,0.5-0.36,0.79
		c-0.39,0.27-0.8,0.56-1.27,0.87c-0.72,0.5-1.54,1.07-2.48,1.72c-0.94,0.64-2.02,1.39-3.25,2.25v-0.02
		c-0.17,0.12-0.33,0.24-0.5,0.35c-0.17,0.11-0.33,0.22-0.48,0.33h0.02c-0.24,0.17-0.47,0.32-0.7,0.47
		c-0.23,0.15-0.45,0.31-0.66,0.47c-0.13,0.1-0.28,0.2-0.45,0.32c-0.17,0.12-0.32,0.23-0.45,0.32c-0.35,0.25-0.7,0.5-1.07,0.75
		c-0.12,0.1-0.25,0.19-0.38,0.28s-0.27,0.18-0.4,0.28c-0.16,0.12-0.32,0.24-0.5,0.36c-0.18,0.12-0.36,0.24-0.54,0.38
		c-0.52,0.37-1.1,0.78-1.72,1.22c-0.63,0.45-1.33,0.96-2.12,1.53l0.02-0.02c-0.07,0.05-0.16,0.11-0.25,0.18
		c-0.01-0.14-0.01-0.28-0.01-0.42c0.01-0.14,0.04-0.24,0.1-0.29c0.01-0.02,0.02-0.05,0.02-0.09c0-0.04,0.01-0.07,0.02-0.09
		c0.01-0.04,0.02-0.07,0.04-0.12c0.01-0.04,0.02-0.09,0.04-0.13c0.06-0.33,0.11-0.66,0.15-0.99c0.04-0.33,0.09-0.65,0.13-0.96
		c0.04-0.23,0.07-0.44,0.1-0.64c0.03-0.2,0.06-0.41,0.08-0.61c0.05-0.41,0.1-0.8,0.16-1.18c0.18-1.3,0.34-2.38,0.48-3.24
		c0.14-0.86,0.28-1.55,0.41-2.07c0.13-0.54,0.26-0.97,0.39-1.29c0.13-0.32,0.24-0.58,0.34-0.77c0.06-0.13,0.12-0.23,0.17-0.31
		c0.02-0.03,0.04-0.05,0.06-0.07c0.11-0.08,0.23-0.16,0.33-0.25c0.2-0.18,0.36-0.37,0.48-0.55c0.12-0.18,0.19-0.37,0.22-0.55
		c0.03-0.18,0.01-0.35-0.06-0.49c-0.15-0.29-0.45-0.43-0.89-0.43c-0.05,0-0.11,0.01-0.16,0.01c-0.19-0.07-0.42-0.09-0.68-0.03
		c-0.2,0.06-0.4,0.15-0.58,0.29c-0.1,0.07-0.17,0.17-0.26,0.25c-0.29,0.17-0.56,0.33-0.81,0.49c-0.25,0.16-0.53,0.34-0.82,0.54
		c-0.3,0.2-0.64,0.43-1.02,0.69c-0.38,0.26-0.85,0.6-1.41,1c-0.56,0.42-1.23,0.93-2.02,1.53c-0.79,0.6-1.72,1.37-2.79,2.3
		c-1.07,0.94-2.29,2.08-3.65,3.41c-1.36,1.33-2.82,2.96-4.4,4.89c-0.49,0.62-0.94,1.21-1.35,1.76c-0.41,0.55-0.81,1.1-1.19,1.64
		c-0.38,0.54-0.75,1.09-1.11,1.64c-0.36,0.55-0.73,1.12-1.11,1.72c-0.38,0.61-0.77,1.27-1.18,1.98c-0.41,0.72-0.83,1.49-1.27,2.32
		c-0.06,0.11-0.12,0.22-0.18,0.34c-0.06,0.12-0.12,0.24-0.18,0.36c0.29-0.93,0.61-1.96,0.98-3.1c0.37-1.14,0.81-2.45,1.32-3.94
		c0.51-1.49,1.12-3.19,1.82-5.09c0.7-1.91,1.52-4.1,2.46-6.58c0.29-0.76,0.58-1.52,0.87-2.28c0.29-0.76,0.57-1.47,0.83-2.14
		c0.1-0.23,0.18-0.45,0.27-0.67c0.08-0.22,0.17-0.44,0.25-0.65c0.02-0.06,0.04-0.12,0.06-0.17c0.02-0.05,0.04-0.11,0.06-0.17
		c0.01-0.05,0.03-0.1,0.05-0.14c0.02-0.05,0.04-0.09,0.05-0.13c0.01-0.02,0.02-0.06,0.04-0.1c0.01-0.04,0.02-0.07,0.04-0.1
		c0-0.01,0-0.02,0.01-0.04C79,24.04,79,24.03,79,24.02c0.02-0.05,0.07-0.15,0.14-0.32c0.07-0.17,0.14-0.33,0.2-0.5
		c-0.11-0.06-0.19-0.11-0.25-0.16c-0.06-0.05-0.11-0.08-0.16-0.11h0.04c-0.04-0.02-0.11-0.08-0.21-0.18
		c-0.04-0.02-0.12-0.09-0.25-0.19c-0.13-0.1-0.23-0.18-0.29-0.24l-0.27,0.27c-0.02,0.02-0.05,0.05-0.09,0.08
		c-0.04,0.03-0.06,0.06-0.09,0.08l-0.11,0.07l-0.04,0.04l-0.14-0.04l-0.12,0.23c-0.02,0.02-0.04,0.04-0.05,0.06
		c-0.01,0.02-0.03,0.03-0.05,0.04c-0.02,0.02-0.04,0.04-0.05,0.04c-0.06,0.05-0.12,0.09-0.18,0.12c-0.06,0.03-0.12,0.07-0.18,0.12
		l-0.21,0.16c-0.48,0.35-0.97,0.7-1.48,1.05c-0.51,0.36-1.01,0.7-1.5,1.04c-0.49,0.33-0.96,0.65-1.41,0.94
		c-0.45,0.29-0.86,0.55-1.22,0.76c-0.79,0.48-1.54,0.91-2.26,1.3c-0.72,0.39-1.4,0.69-2.05,0.92c-0.13,0.06-0.25,0.1-0.36,0.12
		c-0.11,0.02-0.21,0.03-0.3,0.04v-0.21c0-0.05,0-0.12,0.01-0.21c0.01-0.09,0.02-0.18,0.04-0.26c0.1-0.43,0.2-0.81,0.33-1.14
		c0.13-0.33,0.24-0.61,0.35-0.85c0.1-0.24,0.2-0.46,0.3-0.65c0.11-0.2,0.21-0.37,0.3-0.53c0.17-0.31,0.3-0.53,0.39-0.66
		c0.02-0.05,0.05-0.1,0.09-0.17c0.04-0.07,0.07-0.13,0.11-0.19c0.01-0.02,0.02-0.04,0.03-0.04c0.01-0.01,0.01-0.02,0.03-0.04v0.02
		l0.02-0.02c0.04-0.07,0.05-0.13,0.09-0.19c0.08-0.05,0.15-0.11,0.2-0.14c0-0.01,0.01-0.02,0.02-0.02c0.01,0,0.02-0.01,0.04-0.02
		c0.17-0.13,0.29-0.29,0.38-0.47c0.09-0.18,0.13-0.37,0.13-0.56c0-0.25-0.08-0.49-0.25-0.72c-0.06-0.07-0.14-0.11-0.21-0.16
		c-0.05-0.08-0.11-0.15-0.2-0.22c-0.13-0.08-0.29-0.12-0.48-0.1c-0.15,0.01-0.3,0.06-0.45,0.13c0,0,0,0,0,0
		c-0.05,0.02-0.09,0.03-0.14,0.06c-0.03,0.01-0.05,0.03-0.08,0.05c-0.06,0.03-0.13,0.06-0.19,0.1c-0.02,0.02-0.05,0.05-0.09,0.07
		c-0.13,0.12-0.35,0.3-0.64,0.54c-0.3,0.24-0.72,0.57-1.25,0.98c-0.3,0.24-0.66,0.51-1.1,0.82c-0.43,0.31-0.96,0.66-1.56,1.05
		c-0.57,0.38-1.22,0.78-1.94,1.19c-0.72,0.41-1.53,0.84-2.42,1.28h0.02c-0.89,0.42-1.68,0.75-2.36,0.99
		c-0.68,0.24-1.28,0.44-1.81,0.6h0.02c-0.45,0.13-0.87,0.24-1.26,0.31c-0.39,0.08-0.77,0.15-1.13,0.21
		c-0.35,0.06-0.66,0.1-0.95,0.13c-0.29,0.03-0.6,0.06-0.95,0.08h-0.2c-0.33,0.02-0.7,0.05-1.1,0.08c-0.4,0.03-0.86,0.04-1.39,0.03
		c-1.82-0.04-3.4-0.27-4.72-0.7c-0.31-0.1-0.61-0.21-0.89-0.35c-0.29-0.14-0.56-0.29-0.8-0.46c-0.48-0.3-0.79-0.63-0.95-0.98
		c-0.14-0.27-0.25-0.54-0.31-0.79c-0.07-0.25-0.1-0.49-0.1-0.72c0-0.1,0.01-0.18,0.03-0.27c0.02-0.08,0.04-0.17,0.06-0.27
		c0.04-0.11,0.09-0.21,0.15-0.3c0.34-0.12,0.65-0.23,0.93-0.34c0.68-0.27,1.24-0.51,1.67-0.7c0.13-0.06,0.26-0.11,0.37-0.16
		c0.12-0.05,0.23-0.1,0.32-0.14l-0.02,0.02c0.07-0.02,0.13-0.05,0.19-0.08c0.05-0.03,0.1-0.06,0.15-0.08
		c0.1-0.06,0.17-0.1,0.22-0.12s0.09-0.03,0.12-0.04l0.25-0.13h0.02l0.13-0.02c0.33-0.23,0.55-0.52,0.64-0.87
		c0.1-0.35,0.04-0.67-0.16-0.96c-0.2-0.26-0.46-0.42-0.76-0.48c-0.08-0.02-0.15,0-0.23,0c-0.18-0.04-0.38-0.05-0.58,0l-0.04,0.02
		c-0.14,0.04-0.27,0.07-0.39,0.11c-0.12,0.04-0.25,0.08-0.38,0.13c-0.14,0.05-0.3,0.11-0.47,0.18c-0.18,0.07-0.41,0.17-0.68,0.29
		l0.02-0.02c-0.25,0.13-0.57,0.3-0.95,0.52c-0.38,0.21-0.78,0.51-1.2,0.89c-0.14,0.13-0.27,0.28-0.4,0.45
		c-0.45,0.17-0.93,0.34-1.46,0.52c-0.93,0.27-2.07,0.54-3.42,0.8c-1.35,0.26-2.88,0.42-4.57,0.48c-0.2,0.01-0.4,0.02-0.58,0.02
		c-0.18,0-0.38,0-0.58,0c-0.89,0-1.74-0.03-2.55-0.09c-0.8-0.06-1.58-0.14-2.32-0.23c-0.38-0.06-0.76-0.1-1.14-0.12
		c-0.38-0.02-0.76-0.03-1.14-0.03c-0.45,0-0.89,0.02-1.31,0.04c-0.42,0.03-0.81,0.07-1.17,0.12c0.06-0.18,0.13-0.37,0.2-0.56
		c0.07-0.2,0.15-0.41,0.23-0.65c0.33-0.97,0.69-2.07,1.08-3.32c0.39-1.24,0.74-2.55,1.05-3.92h-0.02c0.33-1.42,0.57-2.68,0.71-3.8
		c0.14-1.11,0.23-2.08,0.28-2.91c0.04-0.51,0.05-0.99,0.05-1.45c0-0.06,0-0.12-0.01-0.19c-0.01-0.07-0.01-0.13-0.01-0.19V8.84
		c0.27,0,0.55,0.01,0.82,0.02c0.27,0.01,0.56,0.03,0.86,0.05c0.02,0,0.04,0,0.06,0.01c0.02,0.01,0.04,0.01,0.06,0.01l0.64,0.05
		C23.94,9,24.1,9.01,24.25,9.01c0.15,0.01,0.32,0.02,0.48,0.04c0.04,0,0.07,0,0.1,0.01c0.03,0.01,0.06,0.01,0.1,0.01
		c0.1,0.01,0.2,0.02,0.32,0.03c0.12,0.01,0.24,0.02,0.36,0.03c0.32,0.02,0.67,0.05,1.05,0.07c0.38,0.02,0.78,0.05,1.2,0.07
		c2.05,0.13,3.93,0.21,5.65,0.24c1.72,0.03,3.29,0.04,4.72,0.04c0.2,0,0.43,0,0.68,0s0.51,0,0.77,0c0.26,0,0.51,0,0.76,0.01
		c0.24,0.01,0.47,0.01,0.67,0.01c0.38,0.01,0.74,0.02,1.09,0.02c0.35,0,0.69,0,1.02,0c1.22,0,2.29-0.02,3.21-0.05
		c0.92-0.04,1.73-0.08,2.41-0.13c0.68-0.05,1.27-0.1,1.74-0.15c0.48-0.05,0.87-0.1,1.18-0.13c0.17-0.02,0.31-0.04,0.44-0.06
		c0.13-0.02,0.24-0.03,0.35-0.04c0.1-0.01,0.18-0.02,0.27-0.03c0.08-0.01,0.14-0.02,0.16-0.03h-0.04l1.59-0.79
		c0.23-0.3,0.29-0.61,0.18-0.95v0.02c-0.1-0.31-0.32-0.52-0.66-0.64c-0.35-0.12-0.72-0.13-1.11-0.04c-0.11,0.02-0.21,0.05-0.32,0.08
		c-0.11,0.03-0.21,0.06-0.3,0.08c-0.13,0.05-0.34,0.1-0.63,0.17c-0.29,0.07-0.68,0.15-1.18,0.24c-0.37,0.07-0.82,0.15-1.34,0.22
		c-0.52,0.08-1.16,0.15-1.9,0.21c-0.75,0.07-1.61,0.12-2.58,0.16c-0.98,0.04-2.1,0.06-3.38,0.06h-0.52c-0.72,0-1.41-0.01-2.07-0.02
		c-0.67-0.01-1.39-0.04-2.15-0.07c-0.77-0.04-1.62-0.08-2.57-0.14c-0.94-0.06-2.03-0.14-3.27-0.25c-0.99-0.08-1.87-0.15-2.65-0.21
		c-0.77-0.05-1.49-0.1-2.14-0.13c-0.65-0.04-1.25-0.06-1.81-0.07c-0.56-0.01-1.11-0.02-1.65-0.02H22.2
		c-0.28,0.01-0.56,0.02-0.85,0.04c-0.29,0.01-0.58,0.04-0.85,0.09c-0.07,0.01-0.14,0.03-0.2,0.04c-0.06,0.02-0.14,0.04-0.23,0.08
		c-0.05,0.02-0.11,0.07-0.2,0.13c-0.08,0.06-0.17,0.14-0.25,0.23c-0.06,0.08-0.1,0.17-0.13,0.26c-0.02,0.09-0.03,0.16-0.03,0.22
		v0.07c0,0.1,0,0.19,0,0.28c0,0.09,0.01,0.16,0.02,0.21c0,0.05,0,0.1,0,0.15c0,0.05,0.01,0.1,0.04,0.13
		c0.04,0.36,0.05,0.73,0.05,1.13c0,0.42-0.02,0.9-0.05,1.44c-0.04,0.54-0.1,1.13-0.18,1.76c-0.08,0.63-0.19,1.29-0.31,1.98
		c-0.13,0.69-0.27,1.39-0.42,2.09c-0.2,0.77-0.42,1.53-0.65,2.28c-0.23,0.74-0.47,1.46-0.71,2.14s-0.47,1.32-0.7,1.92
		c-0.23,0.6-0.44,1.15-0.63,1.65c-0.06,0.13-0.11,0.27-0.16,0.4c-0.05,0.14-0.1,0.27-0.14,0.38c-0.04,0.1-0.07,0.18-0.09,0.25
		s-0.05,0.15-0.09,0.23c-0.69,0.17-1.32,0.33-1.89,0.5c-0.57,0.17-1.06,0.32-1.47,0.45l-0.36,0.11c-0.62,0.21-1.11,0.39-1.48,0.53
		c-0.37,0.14-0.66,0.25-0.86,0.33H9.4c-0.12,0.06-0.2,0.09-0.23,0.09c-0.06,0.02-0.1,0.04-0.12,0.04c-0.02,0.01-0.04,0.02-0.06,0.03
		c-0.06,0.02-0.11,0.04-0.15,0.06c-0.04,0.02-0.08,0.04-0.12,0.06c-0.31,0.15-0.52,0.39-0.64,0.71c-0.12,0.32-0.1,0.62,0.07,0.92
		c0.16,0.29,0.39,0.48,0.7,0.57c0.31,0.1,0.62,0.07,0.93-0.07c0.05-0.02,0.17-0.09,0.37-0.2c0.2-0.11,0.45-0.24,0.75-0.41
		c0.05-0.01,0.1-0.04,0.14-0.07l-0.09,0.04l0.25-0.11c0.26-0.13,0.6-0.29,1.01-0.46c0.41-0.18,0.84-0.36,1.3-0.54
		c0.13-0.06,0.27-0.12,0.42-0.17c0.15-0.05,0.31-0.11,0.47-0.17c-0.07,0.14-0.12,0.24-0.13,0.29c-0.02,0.05-0.03,0.08-0.04,0.09
		c-0.01,0.01-0.02,0.02-0.02,0.03c0,0.01-0.02,0.04-0.05,0.12c0,0.01-0.01,0.02-0.02,0.04c-0.01,0.01-0.02,0.03-0.03,0.04
		c-0.01,0.02-0.01,0.04-0.03,0.06c-0.24,0.5-0.43,0.9-0.59,1.19c-0.15,0.29-0.28,0.52-0.37,0.69l0.02-0.02
		c-0.02,0.05-0.05,0.1-0.08,0.14c-0.03,0.05-0.06,0.09-0.08,0.13l-0.16,0.32c-0.14,0.31-0.21,0.59-0.21,0.84
		c0,0.23,0.05,0.43,0.15,0.63c0.1,0.19,0.24,0.33,0.42,0.43c0.31,0.17,0.63,0.17,0.96,0.01c0.33-0.16,0.6-0.43,0.8-0.81
		c0.02-0.05,0.05-0.1,0.07-0.17c0.02-0.07,0.05-0.12,0.07-0.17l-0.02,0.04c0.02-0.06,0.06-0.13,0.1-0.2
		c0.04-0.07,0.08-0.16,0.12-0.25l-0.02,0.02c0.13-0.27,0.29-0.62,0.48-1.04c0.19-0.42,0.42-0.97,0.7-1.64
		c0,0.02,0.03-0.04,0.08-0.18c0.05-0.14,0.09-0.26,0.12-0.34l-0.02,0.02c0.07-0.17,0.14-0.32,0.21-0.47
		c0.07-0.15,0.14-0.32,0.21-0.51c0.31-0.06,0.63-0.11,0.97-0.16c0.33-0.05,0.69-0.1,1.07-0.14c0.31-0.04,0.63-0.06,0.95-0.07
		c0.32-0.01,0.65-0.01,0.98,0c0.17,0.01,0.34,0.03,0.52,0.04c0.18,0.02,0.37,0.04,0.57,0.06c0.04,0,0.07,0,0.11,0.01
		c0.04,0.01,0.07,0.01,0.11,0.01c0.13,0.02,0.28,0.04,0.45,0.05c0.17,0.01,0.32,0.02,0.45,0.04c0.58,0.06,1.23,0.1,1.94,0.13
		c0.71,0.03,1.4,0.04,2.08,0.04c0.17,0,0.39,0,0.68,0c0.29,0,0.53-0.01,0.73-0.02c0.93-0.04,1.83-0.1,2.69-0.21
		c0.86-0.1,1.68-0.22,2.45-0.35c0.77-0.13,1.48-0.27,2.13-0.42c0.47-0.11,0.89-0.21,1.28-0.32c0,0.03,0,0.06,0,0.1
		c0,0.37,0.05,0.74,0.15,1.13c0.1,0.38,0.25,0.76,0.44,1.14v-0.02c0.15,0.33,0.33,0.62,0.54,0.86s0.42,0.45,0.66,0.64
		c0.19,0.17,0.42,0.33,0.69,0.5c0.27,0.17,0.51,0.31,0.72,0.43c0.49,0.25,1.11,0.51,1.86,0.78c0.75,0.27,1.59,0.47,2.52,0.62
		c0.44,0.07,0.87,0.12,1.28,0.15c0.41,0.03,0.79,0.04,1.14,0.04c0.2,0,0.41,0,0.62-0.01c0.21-0.01,0.4-0.02,0.56-0.04
		c0.45-0.05,0.87-0.1,1.26-0.15s0.75-0.12,1.1-0.19c0.38-0.1,0.81-0.2,1.29-0.32c0.48-0.12,1.02-0.27,1.63-0.45
		c0.61-0.19,1.31-0.42,2.12-0.7s1.77-0.66,2.89-1.14c1.18-0.52,2.2-1.02,3.06-1.5c0.86-0.48,1.61-0.91,2.25-1.29
		c0.15-0.09,0.27-0.17,0.41-0.26c-0.05,0.13-0.1,0.25-0.14,0.38c-0.06,0.23-0.13,0.47-0.2,0.72c-0.07,0.26-0.12,0.52-0.14,0.8
		c-0.02,0.17-0.04,0.36-0.04,0.57c0,0.21,0.01,0.41,0.04,0.59c0,0.02,0.01,0.06,0.04,0.11c0.01,0.04,0.03,0.08,0.05,0.14
		c0.02,0.06,0.05,0.13,0.07,0.21c0,0.04,0.01,0.09,0.04,0.16c0.01,0.05,0.04,0.09,0.07,0.13l0.04,0.07l0.07,0.12
		c0.08,0.14,0.17,0.24,0.25,0.3l0.02,0.02c0.15,0.16,0.32,0.27,0.49,0.36c0.17,0.08,0.34,0.13,0.51,0.14
		c0.13,0.02,0.25,0.03,0.35,0.03s0.2-0.02,0.3-0.03h0.13c0.2-0.04,0.4-0.08,0.59-0.13c0.19-0.05,0.37-0.11,0.55-0.18
		c0.32-0.13,0.65-0.27,1-0.43c0.35-0.16,0.68-0.32,1.02-0.5c0.67-0.37,1.36-0.78,2.07-1.22c0.71-0.45,1.47-0.93,2.25-1.46
		c0.37-0.25,0.75-0.51,1.14-0.79c0.39-0.27,0.79-0.56,1.2-0.86c-0.21,0.57-0.44,1.17-0.67,1.81s-0.46,1.26-0.69,1.88
		c-0.63,1.73-1.21,3.33-1.74,4.79c-0.53,1.47-1.01,2.81-1.45,4.03c-0.44,1.22-0.83,2.33-1.19,3.32c-0.36,0.99-0.67,1.89-0.95,2.67
		c-0.11,0.31-0.21,0.6-0.3,0.88c-0.1,0.28-0.19,0.55-0.29,0.81c-0.05,0.13-0.09,0.26-0.13,0.38c-0.04,0.13-0.09,0.25-0.13,0.38
		l-0.27,0.75c-0.3,0.86-0.58,1.69-0.83,2.48c-0.26,0.8-0.53,1.66-0.81,2.57c-0.14,0.46-0.29,0.96-0.44,1.49
		c-0.15,0.53-0.3,1.1-0.46,1.71c-0.01,0.05-0.02,0.09-0.03,0.13c-0.01,0.04-0.01,0.08-0.03,0.13l0.02-0.02
		c-0.06,0.27-0.13,0.56-0.2,0.87c-0.08,0.3-0.15,0.61-0.21,0.92c-0.02,0.18-0.05,0.37-0.07,0.56c-0.02,0.2-0.05,0.4-0.07,0.6
		c0,0.02,0,0.05-0.01,0.07c-0.01,0.02-0.01,0.05-0.01,0.07v0.5c0,0.04,0,0.08,0,0.14c0,0.06,0.01,0.11,0.02,0.14
		c0,0.02,0.02,0.09,0.05,0.2c0.02,0.15,0.1,0.29,0.21,0.41l0.02,0.04c0.05,0.07,0.13,0.14,0.23,0.21c0.11,0.07,0.23,0.13,0.36,0.18
		c0.12,0.04,0.25,0.05,0.4,0.04c0.15-0.01,0.29-0.04,0.42-0.09c0.02-0.02,0.06-0.05,0.1-0.08c0.04-0.03,0.09-0.06,0.13-0.1
		l0.04,0.04L67.4,61c0.02-0.05,0.05-0.1,0.09-0.15s0.06-0.09,0.07-0.12c0.04-0.06,0.07-0.12,0.1-0.19c0.03-0.07,0.06-0.15,0.08-0.26
		v0.02c0.74-2.38,1.54-4.61,2.41-6.69c0.87-2.07,1.77-4,2.72-5.77c0.94-1.78,1.9-3.4,2.88-4.88c0.98-1.48,1.94-2.81,2.9-4
		c0.85-1.01,1.69-1.97,2.53-2.86c0.84-0.89,1.65-1.72,2.43-2.48c0.78-0.76,1.52-1.44,2.22-2.06c0.7-0.61,1.34-1.15,1.91-1.62h-0.02
		c1.18-0.93,2.2-1.68,3.06-2.26c0.85-0.57,1.55-1.03,2.12-1.39c-0.09,0.42-0.18,0.85-0.26,1.33c-0.08,0.5-0.16,1.05-0.22,1.64
		c-0.06,0.59-0.14,1.24-0.22,1.96c-0.02,0.17-0.04,0.34-0.06,0.52c-0.02,0.18-0.04,0.35-0.06,0.52c-0.01,0.07-0.02,0.15-0.03,0.22
		c-0.01,0.08-0.01,0.16-0.03,0.24C92.01,32.81,92,32.9,91.98,33c-0.01,0.1-0.02,0.19-0.04,0.28c-0.06,0.56-0.13,1.18-0.21,1.86
		c-0.08,0.68-0.17,1.35-0.27,2.02c-0.06,0.38-0.12,0.75-0.19,1.12c-0.06,0.36-0.14,0.75-0.22,1.17c-0.52,0.38-0.97,0.73-1.34,1.05
		c-0.37,0.32-0.73,0.63-1.07,0.94c-0.56,0.48-1.08,0.94-1.56,1.4c-0.48,0.46-0.93,0.91-1.33,1.35c-0.02,0.02-0.05,0.06-0.08,0.1
		c-0.03,0.04-0.06,0.07-0.08,0.1l0.04-0.04c-0.2,0.25-0.42,0.52-0.64,0.8c-0.23,0.28-0.44,0.57-0.64,0.89
		c-0.06,0.1-0.12,0.2-0.18,0.32c-0.06,0.12-0.12,0.26-0.18,0.41c-0.06,0.17-0.1,0.35-0.13,0.55c-0.02,0.2,0.02,0.42,0.13,0.67
		l-0.02-0.02c0.1,0.29,0.25,0.49,0.46,0.63c0.21,0.13,0.43,0.22,0.67,0.27c0.13,0.02,0.28,0.04,0.44,0.05
		c0.16,0.01,0.32,0.02,0.49,0.02c0.3-0.01,0.62-0.06,0.97-0.14c0.35-0.08,0.69-0.19,1.03-0.32c0.35-0.14,0.67-0.33,0.98-0.57
		c0.31-0.24,0.6-0.51,0.88-0.82c0.52-0.6,0.98-1.31,1.37-2.14c0.39-0.83,0.73-1.73,1.03-2.7c0.06-0.2,0.11-0.41,0.16-0.61
		c0.05-0.2,0.1-0.4,0.14-0.59c1.1-0.86,2.19-1.71,3.28-2.56c1.09-0.85,2.08-1.62,2.98-2.32c1.04-0.79,2-1.51,2.88-2.16
		c0.88-0.66,1.73-1.26,2.56-1.81c1.5-1.01,2.82-1.89,3.95-2.65c0.84-0.55,1.59-1.05,2.26-1.48c0.1,0.35,0.23,0.7,0.41,1.05v-0.02
		c0.16,0.33,0.33,0.62,0.54,0.86c0.2,0.24,0.42,0.45,0.66,0.64c0.19,0.17,0.42,0.33,0.69,0.5c0.27,0.17,0.51,0.31,0.72,0.43
		c0.49,0.25,1.11,0.51,1.86,0.78c0.75,0.27,1.59,0.47,2.52,0.62c0.44,0.07,0.87,0.12,1.28,0.15c0.41,0.03,0.79,0.04,1.14,0.04
		c0.2,0,0.41,0,0.62-0.01c0.21-0.01,0.4-0.02,0.56-0.04c0.45-0.05,0.87-0.1,1.26-0.15s0.75-0.12,1.1-0.19
		c0.38-0.1,0.81-0.2,1.29-0.32c0.48-0.12,1.02-0.27,1.63-0.45c0.61-0.19,1.31-0.42,2.12-0.7c0.8-0.27,1.77-0.66,2.89-1.14
		c1.18-0.52,2.2-1.02,3.06-1.5c0.86-0.48,1.61-0.91,2.25-1.29c0.42-0.26,0.8-0.5,1.14-0.72c0.35-0.21,0.66-0.41,0.93-0.57h-0.02
		c0.05-0.02,0.09-0.05,0.13-0.09c0.04-0.04,0.09-0.07,0.13-0.09c0.08-0.06,0.16-0.11,0.23-0.15c0.07-0.04,0.14-0.09,0.21-0.13
		c0.11-0.07,0.21-0.14,0.3-0.2c0.1-0.06,0.18-0.12,0.27-0.18c0.06-0.05,0.11-0.09,0.16-0.12c0.05-0.04,0.1-0.07,0.14-0.09
		c0.2-0.13,0.36-0.23,0.47-0.31c0.11-0.08,0.2-0.14,0.26-0.19c0-0.01,0.01-0.02,0.02-0.02c0.01,0,0.02-0.01,0.04-0.02
		c0.17-0.13,0.29-0.29,0.38-0.47c0.09-0.18,0.13-0.37,0.13-0.56C142,23.14,141.92,22.91,141.75,22.68z M89.62,44.33
		c-0.22,0.44-0.45,0.83-0.69,1.16c-0.27,0.39-0.61,0.73-1,1c-0.39,0.27-0.75,0.47-1.07,0.57c-0.33,0.08-0.67,0.11-1.02,0.09
		c0.02-0.06,0.06-0.12,0.1-0.18c0.04-0.06,0.08-0.12,0.12-0.18l0.02-0.04c0.35-0.41,0.69-0.77,1.04-1.11
		c0.35-0.33,0.71-0.67,1.09-1.02c0.02-0.01,0.05-0.03,0.08-0.06c0.03-0.03,0.06-0.06,0.08-0.08c0.26-0.24,0.55-0.48,0.85-0.73
		c0.3-0.25,0.63-0.52,0.99-0.82C90.03,43.42,89.84,43.88,89.62,44.33z"/>
</g>
</svg>
